<svg width="24" height="24" viewBox="0 0 24 24" fill="none" xmlns="http://www.w3.org/2000/svg">
<g clip-path="url(#clip0_1_2039)">
<path fill-rule="evenodd" clip-rule="evenodd" d="M12 -0.00106239C5.241 -0.00106239 0 4.95194 0 11.6389C0 15.1369 1.434 18.1609 3.768 20.2489C3.963 20.4229 4.083 20.6689 4.089 20.9329L4.155 23.0689C4.176 23.7499 4.878 24.1939 5.502 23.9179L7.884 22.8679C8.085 22.7779 8.313 22.7629 8.526 22.8199C9.621 23.1199 10.785 23.2819 12 23.2819C18.759 23.2819 24 18.3289 24 11.6419C24 4.95494 18.759 -0.00106239 12 -0.00106239Z" fill="url(#paint0_radial_1_2039)"/>
<path fill-rule="evenodd" clip-rule="evenodd" d="M4.79401 15.0439L8.319 9.45194C8.88 8.56094 10.08 8.34194 10.923 8.97194L13.728 11.0749C13.986 11.2669 14.34 11.2669 14.595 11.0719L18.381 8.19794C18.885 7.81394 19.545 8.41994 19.209 8.95694L15.681 14.5459C15.12 15.4369 13.92 15.6559 13.077 15.0259L10.272 12.9229C10.014 12.7309 9.66 12.7309 9.405 12.9259L5.61901 15.7999C5.11501 16.1839 4.45501 15.5809 4.79401 15.0439Z" fill="white"/>
</g>
<defs>
<radialGradient id="paint0_radial_1_2039" cx="0" cy="0" r="1" gradientUnits="userSpaceOnUse" gradientTransform="translate(4.62 23.8722) scale(26.1504 26.1504)">
<stop stop-color="#0099FF"/>
<stop offset="0.6098" stop-color="#A033FF"/>
<stop offset="0.9348" stop-color="#FF5280"/>
<stop offset="1" stop-color="#FF7061"/>
</radialGradient>
<clipPath id="clip0_1_2039">
<rect width="24" height="24" rx="6" fill="white"/>
</clipPath>
</defs>
</svg>
