<svg width="190" height="32" version="1.1" viewBox="0 0 50.271 8.4667" xmlns="http://www.w3.org/2000/svg">
 <g transform="matrix(.21901 0 0 .21901 10.108 6.4007e-8)" data-name="Ebene 1">
  <path class="cls-1" transform="translate(-4.648 -.44)" d="m9.5 14.127 4.239-13.227h10.623l1.89 13.227 6.23-13.227h10.47l0.1 13.227z" data-name="Path 1"/>
  <path class="cls-1" transform="translate(-3.719,-15.559)" d="m7.753 31.8-0.153 0.511h9.652l0.153-0.511z" data-name="Path 2"/>
  <path class="cls-1" transform="translate(-13.7,-15.559)" d="m28 31.8 0.051 0.511h13.789l0.2-0.511z" data-name="Path 3"/>
  <path class="cls-1" transform="translate(-27.84,-15.559)" d="m56.9 31.8v0.511h9.346v-0.511z" data-name="Path 4"/>
  <path class="cls-1" transform="translate(-2.789,-17.957)" d="m15.71 36.7-0.31 1.021h-9.7l0.357-1.021" data-name="Path 5"/>
  <path class="cls-1" transform="translate(-27.694,-17.957)" d="m56.651 36.7h9.449v1.021h-9.5z" data-name="Path 6"/>
  <path class="cls-1" transform="translate(-27.596,-20.403)" d="m56.451 41.7h9.6v1.481h-9.651" data-name="Path 7"/>
  <path class="cls-1" transform="translate(-27.351,-22.801)" d="m65.808 48.643v-2.043h-9.708l-0.1 2.043-0.1 3.013h9.908z" data-name="Path 8"/>
  <path class="cls-1" transform="translate(-14.728,-22.801)" d="m30.1 46.6 0.306 2.043 0.46 3.013h6.026l1.481-3.013 0.97-2.043z" data-name="Path 9"/>
  <path class="cls-1" transform="translate(0,-22.801)" d="m1.634 46.6-0.664 2.043-0.97 3.013h9.959l0.919-3.013 0.562-2.043z" data-name="Path 10"/>
  <path class="cls-1" transform="translate(-14.385,-20.403)" d="m29.4 41.7h10.878l-0.766 1.481h-9.912z" data-name="Path 11"/>
  <path class="cls-1" transform="translate(-1.859,-20.403)" d="m4.311 41.7h9.755l-0.46 1.481h-9.806l0.511-1.481" data-name="Path 12"/>
  <path class="cls-1" transform="translate(-14.043,-17.957)" d="m28.7 36.7h12.461l-0.511 1.021h-11.8l-0.15-1.021" data-name="Path 13"/>
  <path class="cls-1" transform="translate(-42.274)" d="m102.74 9.346a6.226 6.226 0 0 0-5.873 4.341h-10.47c1.839-8.325 9.55-13.687 17.824-13.687s14.3 5.362 13.534 13.687h-10.47a4.267 4.267 0 0 0-4.545-4.341" data-name="Path 14"/>
  <path class="cls-1" transform="translate(-41.881,-15.559)" d="m96.221 32.311h-10.621a1.736 1.736 0 0 1 0.051-0.511h10.519a1.737 1.737 0 0 0 0.051 0.511" data-name="Path 15"/>
  <path class="cls-1" transform="translate(-61.699,-15.559)" d="m136.72 31.8c-0.051 0.2-0.051 0.255-0.1 0.511h-10.523a2.135 2.135 0 0 0 0.2-0.511h10.419" data-name="Path 16"/>
  <path class="cls-1" transform="translate(-41.981,-17.957)" d="m85.8 36.7h11.287a3.279 3.279 0 0 0 1.175 1.021h-12.309a6.128 6.128 0 0 1-0.153-1.021" data-name="Path 17"/>
  <path class="cls-1" transform="translate(-58.763,-17.957)" d="m121.68 36.7h11.236a6.205 6.205 0 0 1-0.46 1.021h-12.359a5.97 5.97 0 0 0 1.583-1.021" data-name="Path 18"/>
  <path class="cls-1" transform="translate(-42.47,-20.403)" d="m115.35 41.7c-0.306 0.511-0.715 1.021-1.072 1.532h-26.864a10.638 10.638 0 0 1-0.613-1.532" data-name="Path 19"/>
  <path class="cls-1" transform="translate(-43.644,-22.752)" d="m89.2 46.551a13.136 13.136 0 0 0 1.736 2.043c2.451 2.451 6.384 3.473 10.061 3.473a18.135 18.135 0 0 0 7.814-1.583 20.975 20.975 0 0 0 3.32-1.941 18.222 18.222 0 0 0 2.349-2.043z" data-name="Path 20"/>
  <path class="cls-1" transform="translate(-76.867 -.44)" d="m171.2 0.9h-12l-2.1 13.227h20.224a7.175 7.175 0 0 0 3.728-5.362c1.022-6.537-4.341-7.865-9.852-7.865zm0.306 8.784c-0.306 1.941-2.043 2.094-3.524 2.094h-0.96l0.654-4.035h0.715c1.528 1e-3 3.469-0.153 3.109 1.941z" data-name="Path 21"/>
  <path class="cls-1" transform="translate(-76.378,-15.559)" d="m156.1 32.311 0.1-0.511h22.573c0.2 0.255 0.2 0.306 0.358 0.511" data-name="Path 22"/>
  <path class="cls-1" transform="translate(-75.986,-17.957)" d="m155.45 36.7h9.5l-0.153 1.021h-9.5z" data-name="Path 23"/>
  <path class="cls-1" transform="translate(-90.176,-17.957)" d="m193.7 36.7a6.921 6.921 0 0 1 0.1 1.021h-9.448a2.308 2.308 0 0 0-0.052-1.021" data-name="Path 24"/>
  <path class="cls-1" transform="translate(-75.497,-20.403)" d="m154.56 41.7h9.55l-0.1 0.817 1.43 0.051a9.346 9.346 0 0 0 1.736-0.1 3.718 3.718 0 0 0 1.634-0.715h10.163c0 0.1-0.051 0.2-0.051 0.357a7.942 7.942 0 0 1-0.409 1.175h-24.208l0.255-1.583" data-name="Path 25"/>
  <path class="cls-1" transform="translate(-74.567,-22.801)" d="m153.22 46.6-0.306 2.043-0.511 3.064h14.045c2.911 0.051 6.588-0.255 9.142-3.064a8.559 8.559 0 0 0 1.532-2.043z" data-name="Path 26"/>
  <path class="cls-1" transform="translate(-107.89 -.44)" d="m220.5 14.127 6.69-13.227h11.389l5.669 28.4h-10.929l-1.532-15.168z" data-name="Path 27"/>
  <path class="cls-1" transform="translate(-106.42,-15.559)" d="m228.12 32.311h-10.623l0.255-0.511h10.316" data-name="Path 28"/>
  <path class="cls-1" transform="translate(-104.95 -17.957)" d="m215.01 36.7h11.849l0.051 1.021h-12.411" data-name="Path 29"/>
  <path class="cls-1" transform="translate(-103.44 -20.403)" d="m212.17 41.7h13.434l0.153 1.532h-14.353" data-name="Path 30"/>
  <path class="cls-1" transform="translate(-100.5,-22.801)" d="m222.92 46.6h-14.917l-1.021 2.043-1.579 3.013h10.98l1.175-3.013 0.2-0.511h5.311z" data-name="Path 31"/>
  <path class="cls-1" transform="translate(-127.95 -.538)" d="m263.39 1.1a1.721 1.721 0 0 1 0.868 0.255 1.4 1.4 0 0 1 0.664 0.664 2.079 2.079 0 0 1 0.255 0.919 1.721 1.721 0 0 1-0.255 0.868 1.4 1.4 0 0 1-0.664 0.664 1.91 1.91 0 0 1-0.919 0.255 2.079 2.079 0 0 1-0.919-0.255 1.4 1.4 0 0 1-0.664-0.664 1.885 1.885 0 0 1-0.255-0.868 2.079 2.079 0 0 1 0.255-0.919 1.66 1.66 0 0 1 0.664-0.664 3.033 3.033 0 0 1 0.97-0.255m0 0.306a1.175 1.175 0 0 0-0.715 0.2 1.486 1.486 0 0 0-0.562 0.562 1.44 1.44 0 0 0-0.2 0.766 1.44 1.44 0 0 0 0.2 0.766 1.486 1.486 0 0 0 0.562 0.562 1.532 1.532 0 0 0 1.532 0 1.486 1.486 0 0 0 0.562-0.562 1.44 1.44 0 0 0 0.2-0.766 1.44 1.44 0 0 0-0.2-0.766 1.486 1.486 0 0 0-0.562-0.562 1.752 1.752 0 0 0-0.817-0.2m-0.766 2.5v-1.938h0.664a1.425 1.425 0 0 1 0.511 0.051 0.511 0.511 0 0 1 0.255 0.2 0.725 0.725 0 0 1 0.1 0.306 0.465 0.465 0 0 1-0.153 0.358 0.582 0.582 0 0 1-0.409 0.153c0.051 0.051 0.1 0.051 0.153 0.1s0.153 0.2 0.306 0.409l0.255 0.357h-0.358l-0.148-0.302a3.258 3.258 0 0 0-0.306-0.46 0.383 0.383 0 0 0-0.255-0.051h-0.2v0.817zm0.306-1.124h0.358a0.511 0.511 0 0 0 0.358-0.1 0.265 0.265 0 0 0 0.1-0.2 0.189 0.189 0 0 0-0.051-0.153c-0.051-0.051-0.051-0.1-0.153-0.1a1.809 1.809 0 0 0-0.306-0.051h-0.357v0.613z" data-name="Path 32"/>
  <path transform="translate(-15.413,-32.095)" d="m36.2 65.9v4.443c0 0.153-0.051 0.255-0.255 0.255h-0.357c-0.2 0-0.255-0.051-0.255-0.255v-2.143a7.1 7.1 0 0 1 0.153-1.379h-0.051a7.384 7.384 0 0 1-0.562 1.277l-0.664 1.226a0.281 0.281 0 0 1-0.255 0.153h-0.2a0.235 0.235 0 0 1-0.255-0.153l-0.722-1.224a4.167 4.167 0 0 1-0.511-1.277h-0.051a7.543 7.543 0 0 1 0.153 1.379v2.098c0 0.153-0.051 0.255-0.255 0.255h-0.358c-0.2 0-0.255-0.051-0.255-0.255v-4.447c0-0.153 0.051-0.255 0.255-0.255h0.358a0.342 0.342 0 0 1 0.357 0.2l1.43 2.6 1.43-2.6c0.1-0.153 0.153-0.2 0.306-0.2h0.357c0.153 0.051 0.2 0.1 0.2 0.306" data-name="Path 33"/>
  <path transform="translate(-23.045,-32.048)" d="m49.092 65.5a1.763 1.763 0 0 1 1.992 1.839v1.532a2 2 0 0 1-3.984 0v-1.532a1.763 1.763 0 0 1 1.992-1.839m0 0.817c-0.715 0-1.124 0.357-1.124 0.97v1.533c0 0.664 0.409 0.97 1.124 0.97s1.124-0.357 1.124-0.97v-1.533c0-0.613-0.409-0.97-1.124-0.97" data-name="Path 34"/>
  <path transform="translate(-29.944,-32.231)" d="m64.826 67.112a1.164 1.164 0 0 1-0.511 1.072v0.051a1.139 1.139 0 0 1 0.715 1.226 1.4 1.4 0 0 1-1.583 1.379h-1.992c-0.2 0-0.255-0.051-0.255-0.255v-4.443c0-0.153 0.051-0.255 0.255-0.255h1.945a1.136 1.136 0 0 1 1.43 1.226m-1.536-0.513h-1.175v1.226h1.175c0.409 0 0.664-0.2 0.664-0.613s-0.255-0.613-0.664-0.613m0.153 2.043h-1.328v1.277h1.328a0.592 0.592 0 0 0 0.664-0.664c0-0.46-0.255-0.613-0.664-0.613" data-name="Path 35"/>
  <path transform="translate(-36.648,-32.146)" d="m75.155 65.7h0.409c0.153 0 0.255 0.051 0.255 0.255v4.445c0 0.153-0.051 0.255-0.255 0.255h-0.409c-0.2 0-0.255-0.051-0.255-0.255v-4.445c0-0.2 0.051-0.255 0.255-0.255" data-name="Path 36"/>
  <path transform="translate(-40.709,-32.177)" d="m84.119 65.987v3.881h1.992c0.153 0 0.255 0.051 0.255 0.255v0.357c0 0.153-0.051 0.255-0.255 0.255h-2.656c-0.2 0-0.255-0.051-0.255-0.255v-4.442c0-0.153 0.051-0.255 0.255-0.255h0.409c0.153-0.051 0.255 0 0.255 0.2" data-name="Path 37"/>
  <path transform="translate(-46.58,-32.208)" d="m98.469 66.017v0.357c0 0.153-0.051 0.255-0.255 0.255h-2.146v1.226h1.787c0.153 0 0.255 0.051 0.255 0.255v0.357c0 0.153-0.051 0.255-0.255 0.255h-1.787v1.278h2.2c0.2 0 0.255 0.051 0.255 0.255v0.357c0 0.153-0.051 0.255-0.255 0.255h-2.813c-0.2 0-0.255-0.051-0.255-0.255v-4.442c0-0.153 0.051-0.255 0.255-0.255h2.758c0.153-0.153 0.255-0.1 0.255 0.1" data-name="Path 38"/>
  <path transform="translate(-55.956,-32.144)" d="m118.67 70.652h-0.357c-0.306 0-0.357-0.051-0.409-0.2l-0.306-0.919h-1.941l-0.306 0.919c-0.051 0.153-0.153 0.2-0.409 0.2h-0.409c-0.153 0-0.2-0.051-0.153-0.2l1.736-4.545a0.281 0.281 0 0 1 0.306-0.2h0.358a0.281 0.281 0 0 1 0.306 0.2l1.736 4.545c0.051 0.1 0 0.2-0.153 0.2m-2.043-4.137c-0.051 0-0.051 0.409-0.2 0.817l-0.511 1.481h1.43l-0.511-1.481a2.043 2.043 0 0 1-0.2-0.817" data-name="Path 39"/>
  <path transform="translate(-63.02,-32.146)" d="m130.69 69.939c0.715 0 1.073-0.357 1.073-0.97v-3.014c0-0.153 0.051-0.255 0.255-0.255h0.409c0.2 0 0.255 0.051 0.255 0.255v3.013a1.947 1.947 0 0 1-3.881 0v-3.013c0-0.153 0.051-0.255 0.255-0.255h0.409c0.153 0 0.255 0.051 0.255 0.255v3.013c-0.1 0.613 0.255 0.97 0.97 0.97" data-name="Path 40"/>
  <path transform="translate(-69.528,-32.146)" d="m145.88 65.955v0.357c0 0.153-0.051 0.255-0.255 0.255h-1.175v3.883c0 0.153-0.051 0.255-0.255 0.255h-0.409c-0.153 0-0.255-0.051-0.255-0.255v-3.882h-1.175c-0.2 0-0.255-0.051-0.255-0.255v-0.357c0-0.153 0.051-0.255 0.255-0.255h3.269c0.2 0 0.255 0.051 0.255 0.255" data-name="Path 41"/>
  <path transform="translate(-75.84,-32.048)" d="m156.99 65.5a1.763 1.763 0 0 1 1.992 1.839v1.532a2 2 0 0 1-3.984 0v-1.532a1.763 1.763 0 0 1 1.992-1.839m0 0.817c-0.715 0-1.124 0.357-1.124 0.97v1.533c0 0.664 0.409 0.97 1.124 0.97s1.124-0.357 1.124-0.97v-1.533a0.986 0.986 0 0 0-1.124-0.97" data-name="Path 42"/>
  <path transform="translate(-82.739,-32.095)" d="m173.8 65.9v4.443c0 0.153-0.051 0.255-0.255 0.255h-0.358c-0.2 0-0.255-0.051-0.255-0.255v-2.143a7.1 7.1 0 0 1 0.153-1.379h-0.051a7.385 7.385 0 0 1-0.562 1.277l-0.664 1.226c-0.1 0.1-0.153 0.153-0.255 0.153h-0.2a0.235 0.235 0 0 1-0.255-0.153l-0.715-1.226a4.167 4.167 0 0 1-0.511-1.277h-0.051a7.544 7.544 0 0 1 0.153 1.379v2.1c0 0.153-0.051 0.255-0.255 0.255h-0.357c-0.2 0-0.255-0.051-0.255-0.255v-4.447c0-0.153 0.051-0.255 0.255-0.255h0.306a0.342 0.342 0 0 1 0.357 0.2l1.43 2.6 1.43-2.6c0.1-0.153 0.153-0.2 0.306-0.2h0.357c0.2 0.051 0.255 0.1 0.255 0.306" data-name="Path 43"/>
  <path transform="translate(-90.157,-32.144)" d="m188.47 70.652h-0.357c-0.306 0-0.358-0.051-0.409-0.2l-0.306-0.919h-1.941l-0.306 0.919c-0.051 0.153-0.153 0.2-0.409 0.2h-0.306c-0.153 0-0.2-0.051-0.153-0.2l1.736-4.545a0.281 0.281 0 0 1 0.306-0.2h0.357a0.281 0.281 0 0 1 0.306 0.2l1.736 4.545c-0.051 0.1-0.1 0.2-0.255 0.2m-2.043-4.137c-0.051 0-0.051 0.409-0.2 0.817l-0.511 1.481h1.43l-0.511-1.481a2.043 2.043 0 0 1-0.2-0.817" data-name="Path 44"/>
  <path transform="translate(-96.292,-32.146)" d="m200.58 65.955v0.357c0 0.153-0.051 0.255-0.255 0.255h-1.175v3.883c0 0.153-0.051 0.255-0.255 0.255h-0.409c-0.153 0-0.255-0.051-0.255-0.255v-3.882h-1.175c-0.2 0-0.255-0.051-0.255-0.255v-0.357c0-0.153 0.051-0.255 0.255-0.255h3.269c0.2 0 0.255 0.051 0.255 0.255" data-name="Path 45"/>
  <path transform="translate(-102.8 -32.146)" d="m210.36 65.7h0.409c0.153 0 0.255 0.051 0.255 0.255v4.445c0 0.153-0.051 0.255-0.255 0.255h-0.409c-0.2 0-0.255-0.051-0.255-0.255v-4.445c0-0.2 0.051-0.255 0.255-0.255" data-name="Path 46"/>
  <path transform="translate(-106.76 -32.048)" d="m220.19 65.5a1.763 1.763 0 0 1 1.992 1.839v1.532a2 2 0 0 1-3.984 0v-1.532a1.763 1.763 0 0 1 1.992-1.839m0 0.817c-0.715 0-1.124 0.357-1.124 0.97v1.533c0 0.664 0.409 0.97 1.124 0.97s1.124-0.357 1.124-0.97v-1.533c0-0.613-0.409-0.97-1.124-0.97" data-name="Path 47"/>
  <path transform="translate(-113.66 -32.146)" d="m236.18 65.955v4.445c0 0.153-0.051 0.255-0.255 0.255h-0.357a0.266 0.266 0 0 1-0.2-0.1l-1.685-2.5a6.533 6.533 0 0 1-0.562-1.175h-0.1a8.469 8.469 0 0 1 0.153 1.379v2.2c0 0.153-0.051 0.255-0.255 0.255h-0.358c-0.2 0-0.255-0.051-0.255-0.255v-4.453c0-0.153 0.051-0.255 0.255-0.255h0.409a0.388 0.388 0 0 1 0.255 0.1l1.685 2.5a4.085 4.085 0 0 1 0.562 1.175h0.051a8.61 8.61 0 0 1-0.153-1.43v-2.141c0-0.153 0.051-0.255 0.255-0.255h0.357c0.153 0 0.2 0.051 0.2 0.255" data-name="Path 48"/>
 </g>
</svg>
