<svg width="190" height="32" version="1.1" viewBox="0 0 50.271 8.4667" xmlns="http://www.w3.org/2000/svg">
 <defs>
  <clipPath id="clipPath1416">
   <rect x="-54.538" y="-55.421" width="16.945" height="23.612" rx=".60011" ry=".42899" fill="#fff" fill-opacity=".5" stroke-linecap="round" stroke-linejoin="round" stroke-width=".27619"/>
  </clipPath>
 </defs>
 <text x="12.73442" y="6.8333931" font-family="Bahnschrift" font-size="7.4083px" font-weight="300" stroke-width=".26458" style="line-height:1.25" xml:space="preserve"><tspan x="12.73442" y="6.8333931" font-family="Bahnschrift" font-size="7.4083px" font-weight="300" stroke-width=".26458">SmartDok</tspan></text>
 <circle cx="7.4207" cy="4.2738" r="4.2333" fill="#ff0" stroke-linecap="round" stroke-linejoin="round" stroke-width=".39688"/>
 <path transform="matrix(.37772 0 0 .34703 24.601 19.284)" d="m-41.111-33.766c-0.99291-2.197-2.5145-3.5211-4.8098-4.1856-3.4608-1.0019-4.2628-1.3793-5.4466-2.5632-1.6925-1.6925-2.2887-3.1873-2.3023-5.7725-0.0099-1.8764 0.08945-2.3266 0.85727-3.8863 0.47764-0.97022 1.2515-2.0881 1.7198-2.4841 1.1295-0.95531 3.2086-1.8785 4.7224-2.0969 1.5329-0.22114 4.2927 0.30568 4.109 0.78438-0.07085 0.18464-1.2107 2.0274-2.5331 4.095-1.3223 2.0676-2.4043 3.801-2.4043 3.8519 0 0.05091 0.78386 0.3458 1.7419 0.65531 4.3329 1.3998 6.5574 4.1661 6.5328 8.1241-9e-3 1.4529-0.16949 2.2386-0.68902 3.3734-0.37251 0.81366-0.72218 1.4794-0.77705 1.4794-0.05487 0-0.3794-0.61873-0.72116-1.3749zm-4.2023-16.138c1.2187-1.9196 2.2601-3.6003 2.3142-3.7348 0.33569-0.83433-3.5188-1.0073-4.9973-0.22425-1.2907 0.68359-2.021 2.7773-1.5803 4.5308 0.29331 1.167 1.3912 2.9184 1.8294 2.9184 0.11997 0 1.2152-1.5706 2.4339-3.4902zm23.25 14.461c-1.2895-0.4004-3.175-1.801-3.175-2.3584 0-0.18987 0.17712-0.49221 0.3936-0.67188 0.32156-0.26687 0.62426-0.18002 1.6536 0.47444 1.6384 1.0417 3.291 1.4677 4.8096 1.24 2.2152-0.33219 3.4619-1.3623 3.4619-2.8605 0-1.2453-1.1768-2.0805-4.2697-3.0303-1.508-0.46306-3.1222-1.077-3.5873-1.3642-2.67-1.6494-2.4811-5.4017 0.35576-7.0692 1.1411-0.67073 1.533-0.75408 3.5325-0.75126 1.8114 0.0026 2.464 0.11752 3.3542 0.59088 1.8337 0.97507 1.8474 2.6911 0.01553 1.9517-2.4688-0.99649-3.2106-1.1313-4.5866-0.83337-2.5862 0.55992-3.6148 2.6496-2.0885 4.2428 0.54127 0.56496 1.473 1.0024 3.414 1.6028 4.5765 1.4156 5.4477 2.1914 5.4477 4.8514 0 1.3282-0.09786 1.5881-0.95546 2.5374-1.5565 1.7228-4.8907 2.3437-7.7758 1.4478zm11.829 0.24133c-0.10315-0.10315-0.18755-2.7195-0.18755-5.8142 0-5.3858 0.02254-5.6338 0.5268-5.7938 0.63008-0.19998 1.0607 0.02089 1.0607 0.54403 0 0.4944 0.05742 0.48564 1.1875-0.18113 1.2572-0.74179 2.7534-0.55491 4.0777 0.50934l0.97484 0.7834 0.84667-0.7565c1.6328-1.4589 3.9096-1.3603 5.5942 0.24222 1.258 1.1967 1.4013 1.9663 1.2899 6.9277l-0.08021 3.5719h-1.3229l-0.14451-3.9688c-0.08508-2.3365-0.27634-4.208-0.46507-4.5505-0.68989-1.252-2.3054-1.7728-3.5061-1.1302-1.0605 0.56754-1.3083 1.6099-1.3083 5.5029 0 3.0394-0.07341 3.7458-0.41905 4.0327-0.30354 0.25191-0.54058 0.27136-0.8599 0.07055-0.36829-0.23161-0.46348-0.92584-0.57839-4.218-0.07565-2.1674-0.23891-4.1535-0.36279-4.4136-0.27958-0.58687-1.5173-1.247-2.3381-1.247-0.74588 0-1.671 0.61347-2.1151 1.4026-0.19899 0.35357-0.3814 2.1384-0.46507 4.5505-0.12976 3.7411-0.16864 3.9732-0.67771 4.0461-0.29703 0.04252-0.62445-0.0071-0.7276-0.11024zm21.081-0.34095c-1.5407-0.69967-2.4483-2.007-2.767-3.986-0.49261-3.0588 0.47583-5.7571 2.4287-6.767 1.3935-0.7206 3.1677-0.77972 4.585-0.15277l1.2606 0.55763 0.48624-0.59209c0.39397-0.47973 0.57726-0.53646 0.96584-0.29897 0.42929 0.26237 0.48718 0.78475 0.55192 4.9797 0.05595 3.6254 0.16216 4.8237 0.46902 5.292 0.21818 0.33299 0.32172 0.8008 0.2301 1.0396-0.2487 0.6481-1.3553 0.53391-1.8288-0.18871l-0.40812-0.62287-1.2303 0.62287c-1.5009 0.75985-3.2331 0.80246-4.7432 0.11669zm3.3927-1.3567c1.4334-0.39812 2.1114-1.5 2.2481-3.6543 0.17898-2.8195-1.1195-4.6157-3.3148-4.5854-2.3068 0.03183-3.486 1.4355-3.486 4.1495 0 2.6156 1.1273 4.0927 3.3073 4.3335 0.14552 0.01607 0.70594-0.09336 1.2454-0.24318zm8.3079 1.4443c-0.08833-0.23018-0.1606-2.7754-0.1606-5.6561 0-4.313 0.06947-5.2953 0.39351-5.5642 0.48046-0.39874 1.194-0.1682 1.194 0.38578 0 0.51331 0.36869 0.52047 0.78794 0.01531 1.1566-1.3936 5.0111 9e-3 4.4001 1.6012-0.20593 0.53664-0.85558 0.46534-1.7439-0.19141-0.68552-0.50683-0.8557-0.53117-1.5893-0.22732-1.3645 0.56519-1.5903 1.3638-1.5903 5.6237 0 3.8962-0.13085 4.4317-1.0829 4.4317-0.24637 0-0.52021-0.18833-0.60854-0.41852zm10.871 0.09248c-0.72319-0.52939-0.96439-2.0745-0.97133-6.2224l-0.0063-3.7703h-0.81132c-0.72899 0-0.80283-0.07384-0.7276-0.7276 0.06576-0.57149 0.23983-0.74557 0.81132-0.81132l0.7276-0.08372v-2.1785c0-2.2292 0.22488-2.8135 1.0829-2.8135 0.62826 0 0.76914 0.53427 0.76914 2.9168v2.0798l1.1245 0.08136c1.0062 0.0728 1.1333 0.1579 1.2082 0.80896 0.08057 0.70026 0.03806 0.7276-1.131 0.7276h-1.2148l0.0727 4.2878 0.0727 4.2878 0.66146 0.15588c0.4836 0.11397 0.66146 0.33054 0.66146 0.80542 0 0.55109-0.14035 0.66134-0.92604 0.72745-0.50932 0.04286-1.1409-0.07939-1.4036-0.27167zm7.0799-0.0074c-0.07038-0.1834-0.09641-3.9636-0.05784-8.4005l0.07012-8.0671 3.3817-0.07411c3.9706-0.08702 5.1471 0.16998 6.5404 1.4287 1.5092 1.3634 1.7196 2.2336 1.7196 7.1121 0 3.5967-0.07405 4.3823-0.4924 5.2239-0.64184 1.2912-2.0183 2.4822-3.2707 2.83-1.4794 0.41084-7.729 0.36888-7.8909-0.05297zm8.0821-1.927c1.5783-0.91306 1.8513-1.828 1.8513-6.2062 0-4.3783-0.27292-5.2932-1.8513-6.2062-0.73276-0.42389-1.5197-0.55614-3.7703-0.63358l-2.8443-0.09788v13.875l2.8443-0.09788c2.2506-0.07745 3.0376-0.20969 3.7703-0.63358zm8.7377 1.6702c-1.7566-0.94372-2.5211-2.5715-2.5167-5.3584 0.0029-1.8331 0.10247-2.294 0.72526-3.3567 2.1033-3.589 7.2469-3.3417 8.9605 0.43094 0.66803 1.4707 0.66344 4.6466-0.0089 6.1271-0.77612 1.7091-2.0656 2.5308-4.1959 2.6738-1.5157 0.10176-1.9562 0.025-2.9644-0.51665zm4.1543-1.4402c2.2022-1.045 2.6207-5.1154 0.73174-7.1183-0.7573-0.80297-1.0081-0.90544-2.2156-0.90544-1.1798 0-1.4929 0.1202-2.3435 0.89978-0.93915 0.86066-0.98559 0.98432-1.0682 2.8443-0.10455 2.3542 0.40566 3.566 1.7932 4.2592 1.1593 0.57912 1.9147 0.58411 3.1024 0.02048zm6.8143 1.7155c-0.07429-0.19361-0.10353-3.9822-0.06496-8.4191l0.07012-8.0671h1.3229l0.13229 5.7305 0.13229 5.7305 3.6736-3.2831c2.0205-1.8057 3.8216-3.2831 4.0025-3.2831s0.47083 0.17098 0.64427 0.37996c0.38464 0.46346 0.05021 1.1971-0.87879 1.9279-0.34737 0.27324-1.2428 1.0464-1.9899 1.718l-1.3583 1.2212 1.8226 2.2296c2.3392 2.8617 2.7758 3.5416 2.5881 4.0306-0.36907 0.96178-1.2399 0.36368-3.4246-2.3522l-2.2131-2.7511-1.476 1.2297c-1.425 1.1873-1.4791 1.28-1.5654 2.685-0.07842 1.2763-0.16275 1.4656-0.68591 1.5399-0.32807 0.04659-0.65728-0.07371-0.73158-0.26732z" clip-path="url(#clipPath1416)" stroke-width=".26458"/>
</svg>
