<svg width="190" height="32" version="1.1" viewBox="0 0 50.271 8.4667" xmlns="http://www.w3.org/2000/svg">
 <g transform="translate(5.2228)">
  <g transform="matrix(.47761 0 0 .47468 31.496 21.487)" stroke-width=".26458">
   <path d="m-48.252-27.638-0.79375-0.20864-2.3812-1.0688-2.1574-2.0628-1.5397-3.175-7e-3 -4.498 1.4718-2.997 2.1458-2.1458 2.997-1.4689 4.5239-0.0028 3.5162 1.7839 2.0141 2.4062 0.99582 2.4246 0.06252 4.4979-1.5172 3.0424-2.055 2.055-2.9861 1.461-3.4959 0.16556z" fill="#eaeaea"/>
   <path d="m-49.443-34.616-2.68e-4 -5.0932-2.513-1.4211-0.99369-0.73794 2.4108-1.4128h0.64329l6.5385 3.7689-2.64e-4 0.16609-2.65e-4 0.16609-2.6459 1.4861-0.26429-0.16334-0.26428-0.16334-0.03306 2.2802-0.05474 4.6976-2.397 1.5202h-0.42557zm5.0793 3.3765-0.78244-0.65838-0.85696-1.8059v-2.6059l1.1906-1.0613 2.0146-1.1476 1.425 0.0118 1.1411 0.91428 1.1059 1.8521 0.001428 0.52916-2.591 1.4552h-0.31889v-1.0288l-1.3062-1.4847-5e-3 0.79375 0.98945 2.1788 1.22 0.85453 1.8144-1.0705 0.2462 0.2462-0.31322 0.9869-1.4788 0.84941-1.4789 0.84941h-1.2347z" fill="#a8abca"/>
   <path d="m-49.443-34.672v-5.149l-3.1682-1.7405 0.157-0.52917 2.3497-1.2492 6.6968 3.8943-0.21949 0.35515-2.3101 1.2911-0.85991-0.48123v7.3062l-2.4028 1.4514h-0.24302zm5.3939 3.5864-0.82378-0.50232-1.1306-2.3354v-1.9844l0.52604-0.98292 2.8457-1.6281h1.2081l2.0347 2.1389v1.1722l-2.3422 1.4148-0.50018-1.4186-1.1087-1.3229-0.0176 1.2076 0.72555 1.7028 1.3946 1.2861 2.1132-1.1877v0.33323l-0.52604 0.98292-2.8457 1.6281-0.72934-2e-3z" fill="#8a8bb5"/>
   <path d="m-49.443-34.648v-5.1555l-3.175-1.9287v-0.17598l2.4197-1.418 6.4324 3.7145 0.15356 0.46068-2.1603 1.2141-1.0245-0.26792-5.38e-4 7.2265-2.6453 1.4857zm5.4811 3.5966-0.73658-0.45598-1.305-2.6174v-1.7049l0.31924-0.83192 3.0573-1.8572h0.90742l1.5449 1.1001 0.78576 1.5195-4e-3 0.68774-2.1255 1.2139-0.51624-0.31905v-0.69116l-1.0967-1.3943h-0.43503l0.41049 1.8201 1.1476 1.8568 1.0401 0.33011 1.94-1.199-0.36052 0.93948v0.183l-3.1119 1.8904-0.72453-0.014z" fill="#6366ab"/>
   <path d="m-49.443-34.62v-5.1158l-0.66146-0.71263 0.75138 0.42902-0.1657-0.4318-0.1657-0.43181 0.63835-0.36637-0.39228 0.43303 0.58937 0.71015-0.46167-5.87e-4 0.15442 10.055h0.47666l-0.20382-1.0583h0.49878v1.0397l-1.0583 0.5664zm1.3229 4.064v-0.22805l1.0583-0.27676v-7.1621l0.5378-0.33238-0.24994-0.40441h0.77267l-0.79595 0.87952v7.1494l-1.3229 0.60276zm4.3163-0.48821-0.5048-0.46302 0.66322 0.44243 0.51578-0.31877 0.35468 0.57388 0.76771-0.2946-0.3233 0.5231h-0.96848zm-4.0517-0.33073v-0.26458h0.5604l-0.32704 0.52917h-0.23335zm6.1736-0.08989v-0.32589h0.97014v0.13258l-0.97014 0.5192zm-1.2675-0.15642-0.15222-0.2463 0.61956-0.38291-0.34964 0.56573 0.66476 0.268-0.63023 0.04178zm-5.7909-0.42711 0.14654-0.38188 0.47372 0.29277v0.17674l-0.7668 0.29425zm3.663-0.12034-0.16352-0.26458h0.82498v0.52917h-0.49794zm4.4035 0.02902-0.35898-0.22746 0.53021-0.32769 0.30342 0.79071-0.11568-0.0082zm-7.0494-0.2936-0.16352-0.26458h0.5604v0.52917h-0.23335zm5.8208 0-0.52917-0.22739 0.44741-0.0186 0.44741-0.01859 0.32704 0.52917-0.16352-0.0372zm1.8658-0.19189-0.174-0.45344 0.37252 0.37252 0.68746-0.91782-0.30214 1.1989-0.40984 0.2533zm-5.5373-0.47979-0.16498-0.42993 0.016-0.3536 0.56158 0.96573-0.24772 0.24772zm2.5792-0.18632 0.14822-0.46113-1.0767-1.0031-0.88965 0.12958 0.66794-0.22868-0.30229-0.48912h0.78088l0.2669-0.66146 0.04178 0.92604h-0.5604l0.33238 0.5378 0.41522-0.25662 0.55713 1.2228-0.52967 0.74502zm-1.0352-0.21793-0.1744-0.28219 0.31757-0.31757v0.64859l0.61093-0.37757-0.37757 0.61093h-0.20212zm-1.1797-0.46747v-0.30868l-0.66146 0.1323-0.16582-1.7198h0.54609l-0.27732-0.72268 2.2766-1.3445 0.39856 0.24632-0.0082 0.63023-0.51296-0.79375-0.0082 0.66146-0.39688-0.09234-1.4552 0.70645v0.47546l0.4926-0.30444 0.38599 0.67009-0.43302-0.39228-0.71015 0.58937v0.80291l0.92521 0.67653-0.39604 0.39604zm3.4616-0.14055 0.11024-0.09645 1.3229-0.63004-1.0272 0.82294h-0.51622zm-0.69874-1.3229-0.5444-0.82957-0.64119 0.07386-0.64119 0.07385 1.0483-0.79234 0.39688-0.0168-0.1323 0.63003 1.0415 0.22475-0.68003-0.81938 1.3538-0.88704-0.3239-0.52408 1.1505 0.61573 1.028 1.686 2e-3 0.86943-0.70556 0.27075v-0.72002l0.22049 0.13627 0.22051 0.13627-0.0372-0.4281-0.45478-1.0583-0.0372 0.66146h-0.59396l0.65875-0.79375-0.65875-0.79375h-0.46437l0.1323 0.6374-0.66146 0.0902-0.61736 0.06614 0.39688 0.39688h0.48507v0.52917l-0.52917 0.06614-0.2832 0.06614 0.59066 1.1037-0.17516 0.1586zm1.2059 0.05238v-0.22049h0.79375v0.44097h-0.79375zm-1.5501-2.4244-0.29739-0.35834 0.34819-0.34819h0.97014v0.46437l-0.72354 0.60048zm0.62406-0.17736 0.16352-0.26458h-0.85621l0.32704 0.52916h0.20212zm-3.8861-0.18074 0.34727-0.13896 0.3197 0.3197-1.0142-0.04178zm0.73832-0.30433-0.13627-0.22049h0.7472l-0.27254 0.44097h-0.20212zm0.68712-0.62618-0.27615-0.27615 0.27613-0.71958 1.0054 0.53809v0.45393l-0.72927 0.27985zm0.60854-0.21167 0.16352-0.26458h-0.85621l0.32704 0.52917h0.20212zm-1.9844-0.41234v-0.09821l1.0583-0.5664v0.48607l-1.0583 0.27676zm-0.64777-0.71706 0.10201-0.5297 0.18752-0.18752 0.88459 0.65599-1.2761 0.59092zm-4.8423-0.60789-1.1245-0.67395v-0.1843l2.4049-1.4094 3.4402 2.0124-0.65933 0.21978-0.20284-0.60854h-0.5339l-1.2672-0.99676-1.7267 0.10948 0.12594 0.60366-0.7874-0.30216v0.83175l1.0693 0.57226 0.43004-0.26578v0.77047l-0.0441-5e-3zm1.4426-0.82035 0.13537-0.35278h0.15136l0.27074 0.70556h-0.69285z" fill="#5e62a8"/>
   <path d="m-49.334-34.418 5.03e-4 -4.7625 0.17498 4.9216-0.17598 4.6034 5.02e-4 -4.7625zm5.7115 3.5719-0.39688-0.25648 0.52917 0.02908 1.0583 0.45478-0.79375 0.02908zm-3.3359-3.4396v-3.5719l0.18512 3.5719-0.18512 3.5718zm1.0161-0.79375v-0.92604l0.242 0.92604-0.242 0.92604zm2.3408-0.41892 0.02089-0.50712 0.27793 0.69453-0.3197 0.3197zm2.6249-2.2506-0.66146-0.54104 1.1612 0.56753 0.32528 0.52632-0.16352-0.0118zm-1.3725-0.68627 0.34727-0.13896 0.3197 0.3197-1.0142-0.04178zm-1.9348-1.1922-0.52917-0.54771 1.1906 0.61633v0.51055l-0.1323-0.03144-0.52917-0.54772zm-5.3974-0.29276-0.35028-0.58328 0.95368 0.91344-0.25312 0.25312zm-2.7934-1.7556-0.15222-0.2463 0.4496-0.27787v0.77047h-0.14516zm1.9025-1.374 0.32632-0.32877 0.29622 0.29622-0.94886 0.36131z" fill="#5455a5"/>
  </g>
  <text x="15.610417" y="5.5634847" font-family="sans-serif" font-size="4.7625px" stroke-width=".26458" style="line-height:1.25" xml:space="preserve"><tspan x="15.610417" y="5.5634847" font-family="sans-serif" font-size="4.7625px" stroke-width=".26458">Topocad</tspan></text>
 </g>
</svg>
